<svg xmlns="http://www.w3.org/2000/svg" viewBox="0 0 24.95 24"><defs><style>.cls-1{fill:#ab5252;}</style></defs><title>Asset 2</title><g id="Layer_2" data-name="Layer 2"><g id="Layer_1-2" data-name="Layer 1"><path class="cls-1" d="M0,0V1.76L1.3,3.07,0,4.37V6.13L3.07,3.07Z"/><path class="cls-1" d="M9.41,12l3.07,3.06L15.54,12,12.48,9Zm3.07,1.3L11.17,12l1.31-1.31L13.78,12Z"/><path class="cls-1" d="M25,17.87l-3.06,3.06L25,24V22.24l-1.3-1.31,1.3-1.3Z"/><path class="cls-1" d="M25,0,21.89,3.07,25,6.13V4.37l-1.3-1.3L25,1.76Z"/><path class="cls-1" d="M0,17.87v1.76l1.3,1.3L0,22.24V24l3.07-3.07Z"/><path class="cls-1" d="M25,8.75,16.89.67,12.48,5.08,8.06.66,0,8.74V10.5L1.54,12,0,13.56v1.76l8.07,8.06L12.48,19l4.41,4.42L25,15.33V13.56L23.42,12,25,10.49Zm-2.41,2.39L20.81,9.41l-.88.88L21.66,12l-1.75,1.75.88.88,1.75-1.75,1.54,1.55-7.19,7.18-3.53-3.54,3.95-4,1.17,1.16-2.41,2.42.88.88,3.29-3.3-2.93-2.92-4.83,4.84L7.65,12.37,4.72,15.3,8,18.6l.88-.88L6.48,15.3l1.17-1.17,3.95,4L8.07,21.62.88,14.44l1.54-1.53,1.74,1.74L5,13.77,3.3,12,5,10.28,4.15,9.4,2.41,11.14.88,9.61,8.06,2.42,11.6,6l-4,4L6.47,8.74,8.88,6.33,8,5.44,4.71,8.74l2.92,2.93,4.85-4.83,4.83,4.82,2.93-2.93-3.3-3.29-.88.88,2.42,2.41L17.31,9.9,13.36,6l3.53-3.53,7.18,7.19Z"/></g></g></svg>