<svg xmlns="http://www.w3.org/2000/svg" xmlns:xlink="http://www.w3.org/1999/xlink" viewBox="0 0 75 56"><defs><style>.cls-1{opacity:0.7;fill:url(#linear-gradient);}.cls-2{fill:url(#linear-gradient-2);}</style><linearGradient id="linear-gradient" x1="37.5" y1="56" x2="37.5" gradientUnits="userSpaceOnUse"><stop offset="0.53" stop-color="#fff" stop-opacity="0"/><stop offset="1" stop-color="#fff" stop-opacity="0.3"/></linearGradient><linearGradient id="linear-gradient-2" x1="37.5" y1="56" x2="37.5" gradientUnits="userSpaceOnUse"><stop offset="0" stop-color="#ff0005"/><stop offset="0.25" stop-color="#ff0003" stop-opacity="0.61"/><stop offset="0.66" stop-color="red" stop-opacity="0"/></linearGradient></defs><g id="Layer_2" data-name="Layer 2"><g id="Layer_1-2" data-name="Layer 1"><path class="cls-1" d="M63,2A10,10,0,0,1,73,12V44A10,10,0,0,1,63,54H12A10,10,0,0,1,2,44V12A10,10,0,0,1,12,2H63m0-2H12A12,12,0,0,0,0,12V44A12,12,0,0,0,12,56H63A12,12,0,0,0,75,44V12A12,12,0,0,0,63,0Z"/><path class="cls-2" d="M63,1A11,11,0,0,1,74,12V44A11,11,0,0,1,63,55H12A11,11,0,0,1,1,44V12A11,11,0,0,1,12,1H63m0-1H12A12,12,0,0,0,0,12V44A12,12,0,0,0,12,56H63A12,12,0,0,0,75,44V12A12,12,0,0,0,63,0Z"/></g></g></svg>