<svg xmlns="http://www.w3.org/2000/svg" viewBox="0 0 60 29.89"><defs><style>.cls-1{fill:#fff;}</style></defs><g id="Layer_2" data-name="Layer 2"><g id="Layer_1-2" data-name="Layer 1"><polygon class="cls-1" points="32.92 15.16 36.82 22.97 40.72 15.16 36.82 7.36 32.92 15.16"/><path class="cls-1" d="M58.27,0H1.73A1.74,1.74,0,0,0,0,1.73V28.16a1.73,1.73,0,0,0,1.73,1.73H58.27A1.73,1.73,0,0,0,60,28.16V1.73A1.74,1.74,0,0,0,58.27,0ZM3.9,3.47H6.28l6.93,7.69V3.47h2.17V14.3H13L6.07,6.62V14.3H3.9ZM15.38,18.2H6.07v6.49h7.14V22.53H8.43V20.36h7v6.5H3.9V16H15.38ZM17.11,3.47H28.59V5.63H19.28V7.8h9.31V10H19.28v2.17h9.31V14.3H17.11ZM28.59,26.86H26.43V18.2H19.28v6.49H24v2.17H17.11V16H28.59Zm14.73-11.7h0v11.7H41.16v-7l-3.25,7H35.74l-3.25-7v7H30.32V3.47h2.17v7l3.25-7h2.17l3.25,7v-7h2.16Zm13.21,3H47.22v2.16h9.31v2.17H47.22v2.16h9.31v2.17H45.05V16H56.53Z"/></g></g></svg>