<svg xmlns="http://www.w3.org/2000/svg" xmlns:xlink="http://www.w3.org/1999/xlink" viewBox="0 0 74 74"><defs><style>.cls-1{opacity:0.7;}.cls-2{fill:url(#linear-gradient);}.cls-3{fill:url(#linear-gradient-2);}.cls-4{fill:url(#linear-gradient-3);}</style><linearGradient id="linear-gradient" x1="37" y1="74" x2="37" gradientUnits="userSpaceOnUse"><stop offset="0" stop-color="#c50005"/><stop offset="0.19" stop-color="#b00004" stop-opacity="0.86"/><stop offset="0.45" stop-color="#970002" stop-opacity="0.71"/><stop offset="0.67" stop-color="#850001" stop-opacity="0.59"/><stop offset="0.87" stop-color="#7a0000" stop-opacity="0.52"/><stop offset="1" stop-color="#760000" stop-opacity="0.5"/></linearGradient><linearGradient id="linear-gradient-2" x1="37" y1="74" x2="37" gradientUnits="userSpaceOnUse"><stop offset="0.53" stop-color="#fff" stop-opacity="0"/><stop offset="1" stop-color="#fff" stop-opacity="0.1"/></linearGradient><linearGradient id="linear-gradient-3" x1="37" y1="74" x2="37" gradientUnits="userSpaceOnUse"><stop offset="0" stop-color="#ff0005"/><stop offset="0.25" stop-color="#ff0003" stop-opacity="0.61"/><stop offset="0.66" stop-color="red" stop-opacity="0"/></linearGradient></defs><g id="Layer_2" data-name="Layer 2"><g id="Layer_1-2" data-name="Layer 1"><g class="cls-1"><rect class="cls-2" width="74" height="74" rx="20"/><path class="cls-3" d="M54,2A18,18,0,0,1,72,20V54A18,18,0,0,1,54,72H20A18,18,0,0,1,2,54V20A18,18,0,0,1,20,2H54m0-2H20A20,20,0,0,0,0,20V54A20,20,0,0,0,20,74H54A20,20,0,0,0,74,54V20A20,20,0,0,0,54,0Z"/></g><path class="cls-4" d="M54,1A19,19,0,0,1,73,20V54A19,19,0,0,1,54,73H20A19,19,0,0,1,1,54V20A19,19,0,0,1,20,1H54m0-1H20A20,20,0,0,0,0,20V54A20,20,0,0,0,20,74H54A20,20,0,0,0,74,54V20A20,20,0,0,0,54,0Z"/></g></g></svg>