<svg xmlns="http://www.w3.org/2000/svg" viewBox="0 0 60 26.67"><defs><style>.cls-1{fill:#c10000;}.cls-2{fill:red;}</style></defs><g id="Layer_2" data-name="Layer 2"><g id="Layer_1-2" data-name="Layer 1"><path class="cls-1" d="M42,0V7L38.77,0H36.3L33.09,7V0h-3V26.67h3v-7l3.21,7h2.47l3.21-7v7h3V0ZM37.53,21.74l-4.2-8.41,4.2-8.4,4.2,8.4Z"/><polygon class="cls-1" points="0 0 2.96 0 10.12 7.94 10.12 0 13.09 0 13.09 12.35 10.12 12.35 2.96 4.41 2.96 12.35 0 12.35 0 0"/><polygon class="cls-1" points="13.09 17.28 2.96 17.28 2.96 23.7 10.12 23.7 10.12 21.98 5.17 21.98 5.17 19.01 13.09 19.01 13.09 26.67 0 26.67 0 14.32 13.09 14.32 13.09 17.28"/><polygon class="cls-1" points="15.06 0 28.15 0 28.15 2.96 18.02 2.96 18.02 4.69 28.15 4.69 28.15 7.66 18.02 7.66 18.02 9.38 28.15 9.38 28.15 12.35 15.06 12.35 15.06 0"/><polygon class="cls-1" points="28.15 26.67 25.18 26.67 25.18 17.28 18.02 17.28 18.02 23.7 23.09 23.7 23.09 26.67 15.06 26.67 15.06 14.32 28.15 14.32 28.15 26.67"/><polygon class="cls-1" points="46.91 14.32 60 14.32 60 17.28 49.88 17.28 49.88 19.01 60 19.01 60 21.98 49.88 21.98 49.88 23.7 60 23.7 60 26.67 46.91 26.67 46.91 14.32"/><polygon class="cls-1" points="53.46 12.35 60 0 46.91 0 53.46 12.35"/><polygon class="cls-2" points="12.87 0 12.87 12.13 10.22 12.13 2.75 3.85 2.75 3.98 2.75 3.98 2.75 12.13 0.21 12.13 0.21 0 0 0 0 12.13 0 12.35 0.21 12.35 2.75 12.35 2.96 12.35 2.96 12.13 2.96 4.41 2.96 4.41 10.12 12.35 12.87 12.35 13.09 12.35 13.09 12.13 13.09 0 12.87 0"/><polygon class="cls-2" points="27.93 12.13 15.28 12.13 15.28 0 15.06 0 15.06 12.13 15.06 12.35 15.28 12.35 27.93 12.35 28.15 12.35 28.15 12.13 28.15 9.38 27.93 9.38 27.93 12.13"/><polygon class="cls-2" points="27.93 7.44 18.02 7.44 17.81 7.44 17.81 9.38 18.02 9.38 18.02 7.66 27.93 7.66 28.15 7.66 28.15 7.44 28.15 4.69 27.93 4.69 27.93 7.44"/><polygon class="cls-2" points="27.93 0 27.93 2.75 18.02 2.75 17.81 2.75 17.81 4.69 18.02 4.69 18.02 2.96 27.93 2.96 28.15 2.96 28.15 2.75 28.15 0 27.93 0"/><polygon class="cls-2" points="59.79 26.45 47.13 26.45 47.13 14.32 46.91 14.32 46.91 26.45 46.91 26.67 47.13 26.67 59.79 26.67 60 26.67 60 26.45 60 23.7 59.79 23.7 59.79 26.45"/><polygon class="cls-2" points="59.79 21.76 49.88 21.76 49.66 21.76 49.66 23.7 49.88 23.7 49.88 21.98 59.79 21.98 60 21.98 60 21.76 60 19.01 59.79 19.01 59.79 21.76"/><polygon class="cls-2" points="59.79 14.32 59.79 17.07 49.88 17.07 49.66 17.07 49.66 19.01 49.88 19.01 49.88 17.28 59.79 17.28 60 17.28 60 17.07 60 14.32 59.79 14.32"/><polygon class="cls-2" points="12.87 26.45 0.21 26.45 0.21 14.32 0 14.32 0 26.45 0 26.67 0.21 26.67 12.87 26.67 13.09 26.67 13.09 26.45 13.09 19.01 12.87 19.01 12.87 26.45"/><polygon class="cls-2" points="12.87 14.32 12.87 17.07 2.96 17.07 2.75 17.07 2.75 23.7 2.96 23.7 2.96 17.28 12.87 17.28 13.09 17.28 13.09 17.07 13.09 14.32 12.87 14.32"/><polygon class="cls-2" points="10.34 23.7 10.34 21.98 10.34 21.76 5.38 21.76 5.38 19.01 5.17 19.01 5.17 21.76 5.17 21.98 5.38 21.98 10.12 21.98 10.12 23.7 10.34 23.7"/><polygon class="cls-2" points="22.87 26.45 15.28 26.45 15.28 14.32 15.06 14.32 15.06 26.45 15.06 26.67 15.28 26.67 22.87 26.67 23.09 26.67 23.09 26.45 23.09 23.7 22.87 23.7 22.87 26.45"/><polygon class="cls-2" points="27.93 14.32 27.93 26.45 25.4 26.45 25.4 17.07 25.18 17.07 17.81 17.07 17.81 17.28 17.81 23.7 18.02 23.7 18.02 17.28 25.18 17.28 25.18 26.45 25.18 26.67 25.4 26.67 27.93 26.67 28.15 26.67 28.15 26.45 28.15 14.32 27.93 14.32"/><polygon class="cls-2" points="44.72 0 44.72 26.45 42.19 26.45 42.19 18.73 38.63 26.45 36.43 26.45 32.87 18.73 32.87 26.45 30.34 26.45 30.34 0 30.12 0 30.12 26.45 30.12 26.67 30.34 26.67 32.87 26.67 33.09 26.67 33.09 26.45 33.09 19.71 36.3 26.67 36.3 26.67 38.77 26.67 38.77 26.67 41.98 19.71 41.98 26.45 41.98 26.67 42.19 26.67 44.72 26.67 44.94 26.67 44.94 26.45 44.94 0 44.72 0"/><polygon class="cls-2" points="37.65 4.69 37.53 4.45 37.41 4.69 33.14 13.24 33.33 13.33 37.53 4.93 41.73 13.33 41.92 13.24 37.65 4.69"/><polygon class="cls-2" points="59.76 0 53.46 11.9 47.17 0 46.92 0 53.34 12.13 53.46 12.36 53.58 12.13 60 0 59.76 0"/></g></g></svg>