<svg xmlns="http://www.w3.org/2000/svg" viewBox="0 0 41.48 32"><defs><style>.cls-1{fill:#fff;}</style></defs><title>Asset 1</title><g id="Layer_2" data-name="Layer 2"><g id="Layer_1-2" data-name="Layer 1"><g id="Layer_2-2" data-name="Layer 2"><g id="Layer_1-2-2" data-name="Layer 1-2"><path class="cls-1" d="M41.1,24.5a7.78,7.78,0,0,1-2.79,1.75l-14.77,5.3V27.64l10.88-3.88c1.23-.44,1.43-1.06.42-1.39a7.27,7.27,0,0,0-4.05.21l-7.23,2.56V21.07A25.94,25.94,0,0,1,29,19.86,21.46,21.46,0,0,1,38.37,21c3.2,1,3.54,2.5,2.74,3.52ZM25,17.84v-10c0-1.17-.22-2.24-1.32-2.56C22.8,5,22.28,5.79,22.28,7V32l-6.76-2.14V0a78.27,78.27,0,0,1,9.3,2.56c5.73,2,7.66,4.41,7.66,9.92,0,5.36-3.31,7.4-7.52,5.37ZM3.11,27.23C-.16,26.3-.7,24.38.79,23.28a15.93,15.93,0,0,1,3.72-1.79l9.68-3.44V22l-7,2.49c-1.23.44-1.41,1.07-.41,1.4a7.24,7.24,0,0,0,4-.21l3.34-1.21V28A22,22,0,0,1,3.11,27.23Z"/></g></g></g></g></svg>