<svg xmlns="http://www.w3.org/2000/svg" viewBox="0 0 31.99 32"><defs><style>.cls-1{fill:#fff;}</style></defs><title>plat-xbox</title><g id="Layer_2" data-name="Layer 2"><g id="Layer_1-2" data-name="Layer 1"><g id="Layer_2-2" data-name="Layer 2"><g id="Layer_1-2-2" data-name="Layer 1-2"><g id="_387-xbox" data-name=" 387-xbox"><path class="cls-1" d="M8.59,2.26C11.67,2.1,15.67,4.5,16,4.55a13.58,13.58,0,0,0,1.4-.63c4.13-2,6.07-1.66,6.94-1.62A16,16,0,0,0,9.2,1.54C7.68,2.26,7.65,2.31,8.59,2.26Z"/><path class="cls-1" d="M11.65,8.76C9.73,7,7.9,5.29,6.08,4.67c-1-.32-1.06-.32-1.86.53a16,16,0,0,0-3.9,7.89A13.45,13.45,0,0,0,.06,17a16.64,16.64,0,0,0,2.61,7.8c.61.94.78,1.11.6.64a7.57,7.57,0,0,1,.62-4.13A48.7,48.7,0,0,1,11.65,8.76Z"/><path class="cls-1" d="M31.75,12.86c-1.09-5.16-4.36-8.4-4.8-8.4a6.09,6.09,0,0,0-2.33.89,29.45,29.45,0,0,0-4.16,3.41c2.74,3.44,6.6,9,7.93,13.05a7.53,7.53,0,0,1,.48,3.37c-.11.55-.11.55.09.3a20.21,20.21,0,0,0,1.64-2.81,19.42,19.42,0,0,0,1.2-3.79A21.3,21.3,0,0,0,31.75,12.86Z"/><path class="cls-1" d="M16.1,13c-.32-.07-3.2,2.5-5.25,4.68-3.64,3.86-5.76,7.24-5.76,9.17,0,1,.4,1.45,2.2,2.62a16.17,16.17,0,0,0,7.11,2.52,17.74,17.74,0,0,0,6.48-.66c2.31-.73,5.46-2.63,6-3.61.66-1.28-.64-4.16-3.52-7.66C21.53,17.79,16.7,13.09,16.1,13Z"/></g></g></g></g></g></svg>