<svg xmlns="http://www.w3.org/2000/svg" viewBox="0 0 31.95 32"><defs><style>.cls-1{fill:#fff;}</style></defs><title>Asset 1</title><g id="Layer_2" data-name="Layer 2"><g id="Layer_1-2" data-name="Layer 1"><path class="cls-1" d="M31.66,6.12a8.28,8.28,0,0,0-6.55-6C24.08.05,23.05,0,22,0H9.94c-1,0-2.07.05-3.1.13a8.27,8.27,0,0,0-6.55,6C0,7.26,0,7.92,0,16.6c0,8,0,8.14.15,8.76a8.3,8.3,0,0,0,6.44,6.45A30.38,30.38,0,0,0,10,32H21.92a30.38,30.38,0,0,0,3.44-.19,8.3,8.3,0,0,0,6.44-6.45c.15-.62.15-.78.15-8.76C32,7.92,32,7.26,31.66,6.12Zm-2.45,18.8a5.62,5.62,0,0,1-4.15,4.33,14.85,14.85,0,0,1-2.4.2H9.29a14.85,14.85,0,0,1-2.4-.2,5.62,5.62,0,0,1-4.15-4.33c-.14-.67-.14-17.13,0-17.78A5.64,5.64,0,0,1,6.16,3c.87-.35,1.28-.39,4.1-.4H21.68c2.83,0,3.24,0,4.11.4a5.66,5.66,0,0,1,3.42,4.12C29.35,7.79,29.35,24.25,29.21,24.92Z"/><path class="cls-1" d="M7.41,23V9A1.18,1.18,0,0,1,8.58,7.85h2.71a2.15,2.15,0,0,1,1.82,1l6.4,10.34V8.5a.65.65,0,0,1,.65-.65h3.21A1.18,1.18,0,0,1,24.54,9V23a1.18,1.18,0,0,1-1.18,1.18H20.7a2.16,2.16,0,0,1-1.82-1L12.45,12.79V23.5a.65.65,0,0,1-.64.65H8.58A1.17,1.17,0,0,1,7.41,23Z"/></g></g></svg>